<svg width="456" height="99" viewBox="0 0 457 99" fill="none" xmlns="http://www.w3.org/2000/svg">
<path d="M23.6 79.36C20.3467 79.36 17.3333 78.88 14.56 77.92C11.7867 76.96 9.30667 75.5467 7.12 73.68C4.98667 71.8133 3.2 69.4667 1.76 66.64L11.6 60.32C13.0933 62.6133 14.9333 64.4 17.12 65.68C19.36 66.9067 21.76 67.52 24.32 67.52C26.4533 67.52 28.0533 67.0933 29.12 66.24C30.1867 65.3867 30.72 64.2667 30.72 62.88C30.72 62.0267 30.48 61.2533 30 60.56C29.52 59.8667 28.6133 59.2267 27.28 58.64C25.9467 58 24.0533 57.4133 21.6 56.88C17.0133 55.8133 13.3867 54.48 10.72 52.88C8.05333 51.28 6.16 49.36 5.04 47.12C3.92 44.8267 3.36 42.24 3.36 39.36C3.36 36.16 4.16 33.28 5.76 30.72C7.41333 28.1067 9.76 26.0533 12.8 24.56C15.8933 23.0133 19.52 22.24 23.68 22.24C28.4267 22.24 32.4533 23.1733 35.76 25.04C39.0667 26.9067 41.6533 29.3333 43.52 32.32L33.68 39.36C32.3467 37.6 30.6667 36.3467 28.64 35.6C26.6667 34.8533 24.72 34.48 22.8 34.48C20.8267 34.48 19.2533 34.8533 18.08 35.6C16.96 36.3467 16.4 37.4133 16.4 38.8C16.4 40.08 16.9867 41.1467 18.16 42C19.3867 42.8 21.76 43.6 25.28 44.4C29.76 45.4667 33.3867 46.7733 36.16 48.32C38.9333 49.8667 40.96 51.7867 42.24 54.08C43.5733 56.32 44.24 59.0667 44.24 62.32C44.24 65.6267 43.3867 68.56 41.68 71.12C40.0267 73.68 37.6533 75.7067 34.56 77.2C31.52 78.64 27.8667 79.36 23.6 79.36ZM67.8669 79.04C63.7602 79.04 60.1602 78.16 57.0669 76.4C53.9735 74.64 51.5469 72.2133 49.7869 69.12C48.0269 66.0267 47.1469 62.48 47.1469 58.48C47.1469 54.4267 48.0269 50.8533 49.7869 47.76C51.5469 44.6667 53.9735 42.24 57.0669 40.48C60.1602 38.6667 63.7602 37.76 67.8669 37.76C72.0269 37.76 75.6535 38.6667 78.7469 40.48C81.8935 42.24 84.3202 44.6667 86.0269 47.76C87.7869 50.8533 88.6669 54.4267 88.6669 58.48C88.6669 62.48 87.7869 66.0267 86.0269 69.12C84.3202 72.2133 81.8935 74.64 78.7469 76.4C75.6535 78.16 72.0269 79.04 67.8669 79.04ZM67.8669 66.4C70.1069 66.4 71.9469 65.68 73.3869 64.24C74.8269 62.7467 75.5469 60.8 75.5469 58.4C75.5469 56 74.8269 54.08 73.3869 52.64C71.9469 51.1467 70.1069 50.4 67.8669 50.4C65.6802 50.4 63.8669 51.1467 62.4269 52.64C60.9869 54.08 60.2669 56 60.2669 58.4C60.2669 60.7467 60.9869 62.6667 62.4269 64.16C63.8669 65.6533 65.6802 66.4 67.8669 66.4ZM105.689 78.4C103.556 78.4 101.556 78 99.6894 77.2C97.8227 76.3467 96.3027 74.9867 95.1294 73.12C94.0094 71.2533 93.4494 68.7733 93.4494 65.68V23.52H106.329V61.12C106.329 63.1467 106.649 64.4533 107.289 65.04C107.983 65.5733 108.916 65.84 110.089 65.84V78.08C109.609 78.1867 108.916 78.2667 108.009 78.32C107.156 78.3733 106.383 78.4 105.689 78.4ZM128.835 78H115.795V38.8H128.835V78ZM114.835 26.4C114.835 24.1067 115.528 22.2933 116.915 20.96C118.302 19.5733 120.115 18.88 122.355 18.88C124.648 18.88 126.462 19.5733 127.795 20.96C129.128 22.2933 129.795 24.1067 129.795 26.4C129.795 28.5867 129.128 30.3733 127.795 31.76C126.462 33.0933 124.648 33.76 122.355 33.76C120.115 33.76 118.302 33.0933 116.915 31.76C115.528 30.3733 114.835 28.5867 114.835 26.4ZM154.414 79.04C150.414 79.04 146.894 78.16 143.854 76.4C140.868 74.64 138.521 72.1867 136.814 69.04C135.108 65.8933 134.254 62.32 134.254 58.32C134.254 54.3733 135.108 50.8533 136.814 47.76C138.521 44.6667 140.868 42.24 143.854 40.48C146.894 38.6667 150.414 37.76 154.414 37.76C158.948 37.76 162.841 38.8533 166.094 41.04C169.348 43.2267 171.668 46.16 173.054 49.84L161.454 55.12C160.761 53.6267 159.881 52.48 158.814 51.68C157.748 50.8267 156.334 50.4 154.574 50.4C152.494 50.4 150.734 51.12 149.294 52.56C147.908 54 147.214 55.92 147.214 58.32C147.214 60.8267 147.908 62.8 149.294 64.24C150.734 65.6267 152.494 66.32 154.574 66.32C156.334 66.32 157.748 65.92 158.814 65.12C159.881 64.32 160.761 63.2 161.454 61.76L173.054 66.88C171.668 70.56 169.321 73.52 166.014 75.76C162.761 77.9467 158.894 79.04 154.414 79.04ZM190.554 78H177.514V38.8H190.554V78ZM176.554 26.4C176.554 24.1067 177.247 22.2933 178.634 20.96C180.02 19.5733 181.834 18.88 184.074 18.88C186.367 18.88 188.18 19.5733 189.514 20.96C190.847 22.2933 191.514 24.1067 191.514 26.4C191.514 28.5867 190.847 30.3733 189.514 31.76C188.18 33.0933 186.367 33.76 184.074 33.76C181.834 33.76 180.02 33.0933 178.634 31.76C177.247 30.3733 176.554 28.5867 176.554 26.4ZM211.013 78V28.88H224.053V78H211.013ZM195.173 36.08V23.52H240.053V36.08H195.173ZM257.296 78.72C253.349 78.72 249.882 77.8933 246.896 76.24C243.962 74.5867 241.669 72.24 240.016 69.2C238.362 66.16 237.536 62.56 237.536 58.4C237.536 54.4 238.362 50.8533 240.016 47.76C241.669 44.6667 243.962 42.24 246.896 40.48C249.882 38.6667 253.349 37.76 257.296 37.76C261.402 37.76 264.922 38.6933 267.856 40.56C270.789 42.4267 273.056 44.9067 274.656 48C276.256 51.04 277.056 54.4533 277.056 58.24C277.056 59.0933 277.029 59.8667 276.976 60.56C276.922 61.2533 276.842 61.8133 276.736 62.24H247.216V53.44H266.736L265.616 56.32C265.616 53.8133 264.949 51.76 263.616 50.16C262.282 48.56 260.229 47.76 257.456 47.76C254.896 47.76 252.869 48.5067 251.376 50C249.882 51.4933 249.136 53.4933 249.136 56V60.4C249.136 63.12 249.936 65.2267 251.536 66.72C253.136 68.16 255.376 68.88 258.256 68.88C260.549 68.88 262.362 68.4533 263.696 67.6C265.082 66.6933 266.229 65.5467 267.136 64.16L275.776 68.8C274.122 71.84 271.696 74.2667 268.496 76.08C265.296 77.84 261.562 78.72 257.296 78.72ZM306.114 61.2H280.674V49.44H306.114V61.2ZM312.043 78V38.8H321.643L324.203 46.88L319.483 46.4C320.816 44.9067 322.336 43.52 324.043 42.24C325.803 40.9067 327.723 39.84 329.803 39.04C331.883 38.1867 334.07 37.76 336.363 37.76C338.923 37.76 340.976 38.2133 342.523 39.12C344.123 40.0267 345.35 41.2533 346.203 42.8C347.056 44.2933 347.643 46 347.963 47.92C348.336 49.84 348.523 51.84 348.523 53.92V78H335.563V55.44C335.563 53.4133 335.243 52.08 334.603 51.44C333.963 50.8 333.136 50.48 332.123 50.48C330.683 50.48 329.27 50.88 327.883 51.68C326.55 52.4267 325.19 53.4933 323.803 54.88L321.003 48.4H325.003V78H312.043ZM358.923 78V55.44C358.923 53.4133 358.603 52.08 357.963 51.44C357.376 50.8 356.576 50.48 355.563 50.48C354.176 50.48 352.79 50.88 351.403 51.68C350.016 52.4267 348.63 53.4933 347.243 54.88L343.003 46.4C344.336 44.9067 345.856 43.52 347.563 42.24C349.323 40.9067 351.243 39.84 353.323 39.04C355.403 38.1867 357.563 37.76 359.803 37.76C362.363 37.76 364.443 38.2133 366.043 39.12C367.643 40.0267 368.87 41.2533 369.723 42.8C370.576 44.2933 371.163 46 371.483 47.92C371.803 49.84 371.963 51.84 371.963 53.92V78H358.923ZM396.046 78.72C392.099 78.72 388.632 77.8933 385.646 76.24C382.712 74.5867 380.419 72.24 378.766 69.2C377.112 66.16 376.286 62.56 376.286 58.4C376.286 54.4 377.112 50.8533 378.766 47.76C380.419 44.6667 382.712 42.24 385.646 40.48C388.632 38.6667 392.099 37.76 396.046 37.76C400.152 37.76 403.672 38.6933 406.606 40.56C409.539 42.4267 411.806 44.9067 413.406 48C415.006 51.04 415.806 54.4533 415.806 58.24C415.806 59.0933 415.779 59.8667 415.726 60.56C415.672 61.2533 415.592 61.8133 415.486 62.24H385.966V53.44H405.486L404.366 56.32C404.366 53.8133 403.699 51.76 402.366 50.16C401.032 48.56 398.979 47.76 396.206 47.76C393.646 47.76 391.619 48.5067 390.126 50C388.632 51.4933 387.886 53.4933 387.886 56V60.4C387.886 63.12 388.686 65.2267 390.286 66.72C391.886 68.16 394.126 68.88 397.006 68.88C399.299 68.88 401.112 68.4533 402.446 67.6C403.832 66.6933 404.979 65.5467 405.886 64.16L414.526 68.8C412.872 71.84 410.446 74.2667 407.246 76.08C404.046 77.84 400.312 78.72 396.046 78.72Z" fill="#05254B"/>
<path d="M433.402 26.1562C430.639 22.5234 427.574 19.813 424.207 18.0252C420.818 16.207 417.113 15.011 413.092 14.437L414.378 7.08006C417.331 7.31889 420.298 7.95318 423.279 8.98293C426.291 9.98967 429.195 11.484 431.993 13.4658C434.79 15.4477 437.409 18.0431 439.85 21.2521C442.29 24.461 444.092 27.6781 445.255 30.9033C446.417 34.1284 447.07 37.3113 447.213 40.452C447.409 43.6 447.239 46.6439 446.704 49.5838L439.27 48.8578C439.791 44.8302 439.64 40.9555 438.816 37.2336C437.969 33.4814 436.164 29.789 433.402 26.1562Z" fill="#009BD0"/>
<path d="M417.287 38.4115C415.599 36.1918 413.726 34.5358 411.669 33.4435C409.598 32.3326 407.334 31.6018 404.878 31.2511L405.664 26.756C407.468 26.9019 409.281 27.2895 411.102 27.9187C412.942 28.5338 414.717 29.4468 416.426 30.6577C418.135 31.8686 419.736 33.4544 421.227 35.4151C422.718 37.3758 423.819 39.3414 424.529 41.3119C425.24 43.2825 425.638 45.2273 425.726 47.1462C425.845 49.0696 425.742 50.9295 425.414 52.7257L420.873 52.2821C421.191 49.8213 421.098 47.4538 420.595 45.1798C420.078 42.8872 418.975 40.6311 417.287 38.4115Z" fill="#009BD0"/>
</svg>
