<svg width="226" height="52" viewBox="0 0 226 52" fill="none" xmlns="http://www.w3.org/2000/svg">
<path d="M11.8 42.68C10.1733 42.68 8.66667 42.44 7.28 41.96C5.89333 41.48 4.65333 40.7733 3.56 39.84C2.49333 38.9067 1.6 37.7333 0.88 36.32L5.8 33.16C6.54667 34.3067 7.46667 35.2 8.56 35.84C9.68 36.4533 10.88 36.76 12.16 36.76C13.2267 36.76 14.0267 36.5467 14.56 36.12C15.0933 35.6933 15.36 35.1333 15.36 34.44C15.36 34.0133 15.24 33.6267 15 33.28C14.76 32.9333 14.3067 32.6133 13.64 32.32C12.9733 32 12.0267 31.7067 10.8 31.44C8.50667 30.9067 6.69333 30.24 5.36 29.44C4.02667 28.64 3.08 27.68 2.52 26.56C1.96 25.4133 1.68 24.12 1.68 22.68C1.68 21.08 2.08 19.64 2.88 18.36C3.70667 17.0533 4.88 16.0267 6.4 15.28C7.94667 14.5067 9.76 14.12 11.84 14.12C14.2133 14.12 16.2267 14.5867 17.88 15.52C19.5333 16.4533 20.8267 17.6667 21.76 19.16L16.84 22.68C16.1733 21.8 15.3333 21.1733 14.32 20.8C13.3333 20.4267 12.36 20.24 11.4 20.24C10.4133 20.24 9.62667 20.4267 9.04 20.8C8.48 21.1733 8.2 21.7067 8.2 22.4C8.2 23.04 8.49333 23.5733 9.08 24C9.69333 24.4 10.88 24.8 12.64 25.2C14.88 25.7333 16.6933 26.3867 18.08 27.16C19.4667 27.9333 20.48 28.8933 21.12 30.04C21.7867 31.16 22.12 32.5333 22.12 34.16C22.12 35.8133 21.6933 37.28 20.84 38.56C20.0133 39.84 18.8267 40.8533 17.28 41.6C15.76 42.32 13.9333 42.68 11.8 42.68ZM33.9334 42.52C31.8801 42.52 30.0801 42.08 28.5334 41.2C26.9868 40.32 25.7734 39.1067 24.8934 37.56C24.0134 36.0133 23.5734 34.24 23.5734 32.24C23.5734 30.2133 24.0134 28.4267 24.8934 26.88C25.7734 25.3333 26.9868 24.12 28.5334 23.24C30.0801 22.3333 31.8801 21.88 33.9334 21.88C36.0134 21.88 37.8268 22.3333 39.3734 23.24C40.9468 24.12 42.1601 25.3333 43.0134 26.88C43.8934 28.4267 44.3334 30.2133 44.3334 32.24C44.3334 34.24 43.8934 36.0133 43.0134 37.56C42.1601 39.1067 40.9468 40.32 39.3734 41.2C37.8268 42.08 36.0134 42.52 33.9334 42.52ZM33.9334 36.2C35.0534 36.2 35.9734 35.84 36.6934 35.12C37.4134 34.3733 37.7734 33.4 37.7734 32.2C37.7734 31 37.4134 30.04 36.6934 29.32C35.9734 28.5733 35.0534 28.2 33.9334 28.2C32.8401 28.2 31.9334 28.5733 31.2134 29.32C30.4934 30.04 30.1334 31 30.1334 32.2C30.1334 33.3733 30.4934 34.3333 31.2134 35.08C31.9334 35.8267 32.8401 36.2 33.9334 36.2ZM52.8447 42.2C51.778 42.2 50.778 42 49.8447 41.6C48.9114 41.1733 48.1514 40.4933 47.5647 39.56C47.0047 38.6267 46.7247 37.3867 46.7247 35.84V14.76H53.1647V33.56C53.1647 34.5733 53.3247 35.2267 53.6447 35.52C53.9914 35.7867 54.458 35.92 55.0447 35.92V42.04C54.8047 42.0933 54.458 42.1333 54.0047 42.16C53.578 42.1867 53.1914 42.2 52.8447 42.2ZM64.4175 42H57.8975V22.4H64.4175V42ZM57.4175 16.2C57.4175 15.0533 57.7642 14.1467 58.4575 13.48C59.1508 12.7867 60.0575 12.44 61.1775 12.44C62.3242 12.44 63.2308 12.7867 63.8975 13.48C64.5642 14.1467 64.8975 15.0533 64.8975 16.2C64.8975 17.2933 64.5642 18.1867 63.8975 18.88C63.2308 19.5467 62.3242 19.88 61.1775 19.88C60.0575 19.88 59.1508 19.5467 58.4575 18.88C57.7642 18.1867 57.4175 17.2933 57.4175 16.2ZM77.2072 42.52C75.2072 42.52 73.4472 42.08 71.9272 41.2C70.4339 40.32 69.2605 39.0933 68.4072 37.52C67.5539 35.9467 67.1272 34.16 67.1272 32.16C67.1272 30.1867 67.5539 28.4267 68.4072 26.88C69.2605 25.3333 70.4339 24.12 71.9272 23.24C73.4472 22.3333 75.2072 21.88 77.2072 21.88C79.4739 21.88 81.4205 22.4267 83.0472 23.52C84.6739 24.6133 85.8339 26.08 86.5272 27.92L80.7272 30.56C80.3805 29.8133 79.9405 29.24 79.4072 28.84C78.8739 28.4133 78.1672 28.2 77.2872 28.2C76.2472 28.2 75.3672 28.56 74.6472 29.28C73.9539 30 73.6072 30.96 73.6072 32.16C73.6072 33.4133 73.9539 34.4 74.6472 35.12C75.3672 35.8133 76.2472 36.16 77.2872 36.16C78.1672 36.16 78.8739 35.96 79.4072 35.56C79.9405 35.16 80.3805 34.6 80.7272 33.88L86.5272 36.44C85.8339 38.28 84.6605 39.76 83.0072 40.88C81.3805 41.9733 79.4472 42.52 77.2072 42.52ZM95.2769 42H88.7569V22.4H95.2769V42ZM88.2769 16.2C88.2769 15.0533 88.6235 14.1467 89.3169 13.48C90.0102 12.7867 90.9169 12.44 92.0369 12.44C93.1835 12.44 94.0902 12.7867 94.7569 13.48C95.4235 14.1467 95.7569 15.0533 95.7569 16.2C95.7569 17.2933 95.4235 18.1867 94.7569 18.88C94.0902 19.5467 93.1835 19.88 92.0369 19.88C90.9169 19.88 90.0102 19.5467 89.3169 18.88C88.6235 18.1867 88.2769 17.2933 88.2769 16.2ZM108.427 42.32C106.107 42.32 104.28 41.7733 102.947 40.68C101.64 39.5867 100.987 37.7733 100.987 35.24V22.64L100.907 22.4L102.267 17.64H107.467V33.48C107.467 34.44 107.68 35.12 108.107 35.52C108.56 35.92 109.147 36.12 109.867 36.12C110.267 36.12 110.64 36.08 110.987 36C111.36 35.92 111.667 35.84 111.907 35.76V41.84C111.4 42 110.867 42.12 110.307 42.2C109.747 42.28 109.12 42.32 108.427 42.32ZM97.9466 28.4V22.4H111.907V28.4H97.9466ZM124.038 42.36C122.065 42.36 120.332 41.9467 118.838 41.12C117.372 40.2933 116.225 39.12 115.398 37.6C114.572 36.08 114.158 34.28 114.158 32.2C114.158 30.2 114.572 28.4267 115.398 26.88C116.225 25.3333 117.372 24.12 118.838 23.24C120.332 22.3333 122.065 21.88 124.038 21.88C126.092 21.88 127.852 22.3467 129.318 23.28C130.785 24.2133 131.918 25.4533 132.718 27C133.518 28.52 133.918 30.2267 133.918 32.12C133.918 32.5467 133.905 32.9333 133.878 33.28C133.852 33.6267 133.812 33.9067 133.758 34.12H118.998V29.72H128.758L128.198 31.16C128.198 29.9067 127.865 28.88 127.198 28.08C126.532 27.28 125.505 26.88 124.118 26.88C122.838 26.88 121.825 27.2533 121.078 28C120.332 28.7467 119.958 29.7467 119.958 31V33.2C119.958 34.56 120.358 35.6133 121.158 36.36C121.958 37.08 123.078 37.44 124.518 37.44C125.665 37.44 126.572 37.2267 127.238 36.8C127.932 36.3467 128.505 35.7733 128.958 35.08L133.278 37.4C132.452 38.92 131.238 40.1333 129.638 41.04C128.038 41.92 126.172 42.36 124.038 42.36ZM148.448 33.6H135.728V27.72H148.448V33.6ZM151.412 42V22.4H156.212L157.492 26.44L155.132 26.2C155.799 25.4533 156.559 24.76 157.412 24.12C158.292 23.4533 159.252 22.92 160.292 22.52C161.332 22.0933 162.426 21.88 163.572 21.88C164.852 21.88 165.879 22.1067 166.652 22.56C167.452 23.0133 168.066 23.6267 168.492 24.4C168.919 25.1467 169.212 26 169.372 26.96C169.559 27.92 169.652 28.92 169.652 29.96V42H163.172V30.72C163.172 29.7067 163.012 29.04 162.692 28.72C162.372 28.4 161.959 28.24 161.452 28.24C160.732 28.24 160.026 28.44 159.332 28.84C158.666 29.2133 157.986 29.7467 157.292 30.44L155.892 27.2H157.892V42H151.412ZM174.852 42V30.72C174.852 29.7067 174.692 29.04 174.372 28.72C174.079 28.4 173.679 28.24 173.172 28.24C172.479 28.24 171.786 28.44 171.092 28.84C170.399 29.2133 169.706 29.7467 169.012 30.44L166.892 26.2C167.559 25.4533 168.319 24.76 169.172 24.12C170.052 23.4533 171.012 22.92 172.052 22.52C173.092 22.0933 174.172 21.88 175.292 21.88C176.572 21.88 177.612 22.1067 178.412 22.56C179.212 23.0133 179.826 23.6267 180.252 24.4C180.679 25.1467 180.972 26 181.132 26.96C181.292 27.92 181.372 28.92 181.372 29.96V42H174.852ZM193.413 42.36C191.44 42.36 189.707 41.9467 188.213 41.12C186.747 40.2933 185.6 39.12 184.773 37.6C183.947 36.08 183.533 34.28 183.533 32.2C183.533 30.2 183.947 28.4267 184.773 26.88C185.6 25.3333 186.747 24.12 188.213 23.24C189.707 22.3333 191.44 21.88 193.413 21.88C195.467 21.88 197.227 22.3467 198.693 23.28C200.16 24.2133 201.293 25.4533 202.093 27C202.893 28.52 203.293 30.2267 203.293 32.12C203.293 32.5467 203.28 32.9333 203.253 33.28C203.227 33.6267 203.187 33.9067 203.133 34.12H188.373V29.72H198.133L197.573 31.16C197.573 29.9067 197.24 28.88 196.573 28.08C195.907 27.28 194.88 26.88 193.493 26.88C192.213 26.88 191.2 27.2533 190.453 28C189.707 28.7467 189.333 29.7467 189.333 31V33.2C189.333 34.56 189.733 35.6133 190.533 36.36C191.333 37.08 192.453 37.44 193.893 37.44C195.04 37.44 195.947 37.2267 196.613 36.8C197.307 36.3467 197.88 35.7733 198.333 35.08L202.653 37.4C201.827 38.92 200.613 40.1333 199.013 41.04C197.413 41.92 195.547 42.36 193.413 42.36Z" fill="#F3F3F3"/>
<path d="M214.41 13.2576C213.009 11.4162 211.456 10.0425 209.749 9.13625C208.031 8.2147 206.153 7.60846 204.115 7.31753L204.767 3.58856C206.264 3.70961 207.768 4.03111 209.279 4.55306C210.805 5.06334 212.278 5.82074 213.695 6.82528C215.113 7.82981 216.441 9.14534 217.678 10.7719C218.915 12.3984 219.828 14.029 220.417 15.6637C221.007 17.2984 221.338 18.9117 221.41 20.5036C221.509 22.0992 221.423 23.6421 221.152 25.1322L217.384 24.7642C217.648 22.7228 217.571 20.7588 217.154 18.8723C216.725 16.9705 215.81 15.0989 214.41 13.2576Z" fill="#009BD0"/>
<path d="M206.242 19.4694C205.386 18.3443 204.437 17.5049 203.394 16.9512C202.344 16.3882 201.197 16.0178 199.952 15.84L200.35 13.5616C201.265 13.6356 202.184 13.832 203.107 14.1509C204.039 14.4627 204.939 14.9255 205.805 15.5392C206.672 16.153 207.483 16.9568 208.239 17.9506C208.994 18.9444 209.552 19.9407 209.912 20.9395C210.272 21.9383 210.475 22.924 210.519 23.8967C210.58 24.8716 210.527 25.8143 210.361 26.7247L208.059 26.4999C208.22 25.2526 208.173 24.0526 207.918 22.9C207.656 21.7379 207.097 20.5944 206.242 19.4694Z" fill="#009BD0"/>
</svg>
