<svg width="114" height="156" viewBox="0 0 114 156" fill="none" xmlns="http://www.w3.org/2000/svg">
<path d="M77.8441 37.2533C73.4201 34.3984 69.0311 32.6627 64.6771 32.0461C60.2861 31.4058 55.7976 31.5641 51.2115 32.521L49.7156 24.0362C53.0125 23.135 56.4801 22.6573 60.1182 22.603C63.7802 22.5118 67.5176 22.9915 71.3304 24.0421C75.1433 25.0927 79.0036 26.8789 82.9115 29.4007C86.8193 31.9225 90.0373 34.7041 92.5655 37.7455C95.0937 40.7868 97.0522 43.9828 98.4409 47.3332C99.8904 50.6707 100.902 54.0389 101.476 57.4381L93.1287 59.5708C92.1111 54.9978 90.4245 50.8546 88.0688 47.1412C85.6763 43.4041 82.2681 40.1081 77.8441 37.2533Z" fill="#009BD0"/>
<path d="M65.1803 56.8776C62.4772 55.1333 59.7955 54.0728 57.1352 53.6961C54.4524 53.3048 51.7099 53.4015 48.9078 53.9862L47.9938 48.802C50.0082 48.2514 52.1269 47.9595 54.3498 47.9263C56.5872 47.8706 58.8708 48.1637 61.2004 48.8056C63.5301 49.4475 65.8887 50.5389 68.2764 52.0797C70.6641 53.6205 72.6303 55.3201 74.175 57.1783C75.7197 59.0366 76.9164 60.9893 77.7649 63.0365C78.6505 65.0756 79.2687 67.1336 79.6194 69.2105L74.5191 70.5136C73.8974 67.7195 72.8669 65.188 71.4276 62.9191C69.9657 60.6358 67.8833 58.6219 65.1803 56.8776Z" fill="#009BD0"/>
<path d="M34.7368 155.176C29.695 155.176 24.9524 154.449 20.5088 152.997C16.1507 151.459 12.2198 149.194 8.71624 146.203C5.2981 143.127 2.39269 139.196 0 134.411L14.6125 125.31C17.0907 129.412 20.1243 132.531 23.7133 134.667C27.3023 136.803 31.3186 137.871 35.7622 137.871C39.6076 137.871 42.513 137.06 44.4784 135.436C46.4439 133.812 47.4266 131.676 47.4266 129.027C47.4266 127.318 46.9566 125.865 46.0166 124.669C45.1621 123.387 43.5812 122.191 41.2739 121.08C38.9667 119.969 35.634 118.901 31.2759 117.875C24.1833 116.166 18.5434 114.03 14.3562 111.466C10.2544 108.903 7.34898 105.869 5.63992 102.366C3.93085 98.7766 3.07632 94.803 3.07632 90.4449C3.07632 85.3177 4.31539 80.7886 6.79354 76.8578C9.35714 72.8415 12.9889 69.6797 17.6888 67.3725C22.3888 65.0652 27.986 63.9116 34.4804 63.9116C41.8294 63.9116 48.0247 65.3643 53.0665 68.2697C58.1937 71.1752 62.2954 74.9778 65.3718 79.6778L50.7593 89.804C48.5375 86.8986 45.8457 84.805 42.6839 83.5231C39.6076 82.2414 36.5313 81.6005 33.455 81.6005C29.7805 81.6005 26.9178 82.3268 24.8669 83.7795C22.9015 85.1468 21.9188 87.1122 21.9188 89.6758C21.9188 92.0685 22.9442 94.0766 24.9951 95.7002C27.046 97.2384 31.0623 98.6911 37.044 100.058C44.2221 101.767 49.9902 103.861 54.3483 106.339C58.7064 108.817 61.8682 111.851 63.8336 115.44C65.799 119.029 66.7817 123.344 66.7817 128.386C66.7817 133.513 65.4572 138.085 62.8082 142.101C60.2446 146.118 56.5701 149.322 51.7847 151.715C46.9993 154.022 41.3167 155.176 34.7368 155.176Z" fill="#05254B"/>
</svg>
